<svg fill="none" height="32" width="32" xmlns="http://www.w3.org/2000/svg"><path d="M24.27 19.835a.304.304 0 01-.54 0 4.255 4.255 0 00-5.08-2.104.304.304 0 01-.381-.382 4.255 4.255 0 00-2.104-5.079.304.304 0 010-.54 4.255 4.255 0 002.104-5.08.304.304 0 01.382-.381 4.255 4.255 0 005.079-2.104.304.304 0 01.54 0 4.255 4.255 0 005.08 2.104.304.304 0 01.381.382 4.255 4.255 0 002.104 5.079c.22.113.22.427 0 .54a4.255 4.255 0 00-2.104 5.08.304.304 0 01-.382.381 4.255 4.255 0 00-5.079 2.104z" fill="#ffa756"/><path d="M24 17a5 5 0 110-10 5 5 0 010 10z" fill="#ffdc55"/><path d="M22.419 18c.375-.926.581-1.94.581-3a8 8 0 00-15.938-1H7a6 6 0 000 12h17.5v-8z" fill="#dae1ec"/><path d="M25.9 16a5.002 5.002 0 00-9.8 0H16a5 5 0 000 10h10a5 5 0 000-10z" fill="#b4b9d1"/></svg>